<?xml version="1.0" standalone="no"?>
<!DOCTYPE svg PUBLIC "-//W3C//DTD SVG 20010904//EN"
 "http://www.w3.org/TR/2001/REC-SVG-20010904/DTD/svg10.dtd">
<svg version="1.0" xmlns="http://www.w3.org/2000/svg"
 width="700.000000pt" height="700.000000pt" viewBox="0 0 700.000000 700.000000"
 preserveAspectRatio="xMidYMid meet">
<metadata>
Created by potrace 1.14, written by Peter Selinger 2001-2017
</metadata>
<g transform="translate(0.000000,700.000000) scale(0.100000,-0.100000)"
fill="#000000" stroke="none">
<path d="M1640 6585 c-551 -93 -1027 -415 -1323 -895 -198 -322 -302 -757
-269 -1127 13 -153 77 -479 126 -651 208 -721 700 -1488 1405 -2192 495 -494
1006 -875 1536 -1145 160 -82 356 -165 386 -165 55 0 438 183 654 312 1188
710 2237 1923 2620 3028 79 230 157 587 177 817 20 231 -13 497 -92 733 -216
651 -750 1127 -1425 1271 -100 22 -134 24 -385 24 -305 0 -345 -5 -560 -72
-360 -111 -697 -339 -921 -623 -34 -44 -65 -80 -69 -80 -4 0 -35 36 -69 80
-78 98 -229 244 -339 327 -245 185 -525 304 -836 358 -111 19 -504 19 -616 0z
m2062 -1657 c51 -15 114 -84 124 -135 4 -21 -10 -331 -31 -697 -38 -665 -41
-864 -15 -918 13 -28 34 -36 44 -19 3 5 78 321 166 702 89 382 163 702 166
712 16 54 106 117 166 117 49 0 133 -25 167 -49 35 -25 71 -95 71 -137 0 -17
-67 -320 -149 -675 -157 -680 -190 -869 -178 -1006 8 -80 34 -135 71 -148 22
-7 36 -5 72 14 84 45 149 131 304 402 82 144 160 270 181 290 42 41 111 65
160 54 107 -23 189 -114 189 -207 -1 -48 -14 -73 -290 -552 -212 -367 -261
-460 -307 -579 -104 -271 -184 -413 -303 -540 -205 -219 -465 -319 -835 -319
-276 -1 -494 60 -689 191 -262 177 -450 476 -527 838 -25 120 -27 294 -4 553
19 220 19 358 1 452 -8 40 -62 251 -121 468 -117 435 -120 456 -72 529 30 45
93 79 164 88 88 10 164 -30 196 -104 9 -21 73 -247 141 -503 68 -256 134 -490
145 -520 39 -102 81 -152 102 -119 16 27 21 115 9 199 -6 47 -56 375 -111 730
-64 409 -99 662 -96 692 8 94 78 159 186 174 104 14 200 -55 220 -160 6 -28
58 -358 116 -732 58 -375 110 -697 117 -715 16 -47 38 -79 54 -79 8 0 19 10
24 23 6 12 30 367 54 788 40 707 45 769 65 806 44 87 145 124 253 91z"/>
<path d="M3441 3056 c-28 -29 -26 -17 -51 -435 -11 -186 -23 -328 -29 -334
-21 -21 -39 59 -91 388 -30 195 -57 339 -66 353 -36 54 -129 49 -159 -9 -15
-28 -13 -48 30 -322 50 -319 65 -467 47 -467 -29 0 -49 55 -128 355 -35 130
-54 186 -71 203 -44 44 -142 19 -157 -41 -3 -14 13 -93 40 -193 70 -258 73
-286 61 -478 -9 -143 -9 -175 6 -242 26 -120 88 -237 166 -315 107 -106 225
-152 396 -152 158 0 270 39 360 124 70 66 105 122 155 244 22 54 97 196 166
317 114 197 125 222 120 253 -4 19 -18 43 -33 55 -33 25 -96 27 -120 2 -10 -9
-51 -74 -91 -144 -107 -185 -171 -232 -200 -144 -18 56 -3 155 80 511 53 231
67 305 59 322 -14 31 -55 55 -96 56 -69 2 -75 -12 -159 -377 -42 -181 -78
-331 -80 -334 -30 -30 -34 133 -11 503 8 132 15 245 15 252 0 6 -12 25 -26 42
-34 41 -98 44 -133 7z"/>
</g>
</svg>
