<svg width="411" height="264" viewBox="0 0 411 264" fill="none" xmlns="http://www.w3.org/2000/svg">
<path d="M262.507 86.691C262.507 46.8903 230.268 14.6245 190.506 14.6245C166.369 14.6245 145.068 26.5513 132 44.7783C118.932 26.5513 97.6304 14.6245 73.4992 14.6245C33.7314 14.6245 1.49316 46.882 1.49316 86.691C1.49316 92.3313 2.20816 97.7928 3.43466 103.059C13.4309 165.231 82.4972 230.821 132 248.831C181.494 230.821 250.569 165.231 260.551 103.065C261.792 97.801 262.507 92.3368 262.507 86.691Z" fill="#ED9D8C"/>
<path d="M104.313 151.346C105.322 155.114 103.092 158.983 99.3274 159.995L97.9194 160.375C94.1546 161.381 90.2854 159.151 89.2789 155.386L76.8076 108.834C75.8039 105.069 78.0369 101.195 81.8016 100.185L83.2069 99.8085C86.9716 98.7965 90.8381 101.032 91.8501 104.797L104.313 151.346ZM122.977 143.792C123.596 147.777 120.868 151.511 116.892 152.125L115.926 152.279C111.944 152.892 108.215 150.167 107.597 146.185L98.4886 87.4995C97.8644 83.5147 100.598 79.7857 104.574 79.1642L105.54 79.013C109.522 78.3942 113.256 81.125 113.875 85.107L122.977 143.792ZM141.136 143.336C140.91 147.274 137.536 150.279 133.595 150.059L132.646 149.999C128.703 149.771 125.7 146.396 125.925 142.456L129.261 84.4415C129.489 80.5062 132.864 77.4922 136.804 77.7177L137.753 77.7727C141.691 77.9982 144.694 81.378 144.474 85.3187L141.136 143.336ZM159.008 150.964C158.155 154.63 154.506 156.915 150.832 156.065L148.94 155.631C145.274 154.778 142.992 151.121 143.836 147.452L156.577 92.4495C157.429 88.7837 161.084 86.4985 164.75 87.3482L166.645 87.7882C170.313 88.6407 172.59 92.301 171.746 95.964L159.008 150.964ZM173.564 183.75C171.531 187.267 167.035 188.474 163.515 186.442L162.773 186.007C159.255 183.975 158.048 179.479 160.083 175.962L181.915 138.119C183.948 134.602 188.447 133.392 191.967 135.424L192.709 135.856C196.226 137.885 197.431 142.39 195.399 145.907L173.564 183.75Z" fill="#FAFAFA"/>
<path d="M85.0355 139.543C86.9027 148.668 84.3232 159.734 84.3232 170.671C84.3232 181.605 92.5952 217.399 131.032 217.399C169.469 217.399 171.9 185.334 177.738 175.865C183.576 166.394 176.302 150.494 170.681 157.548C163.064 167.098 157.19 165.542 160.383 147.07C162.761 133.298 148.846 126.651 146.358 139.081C144.441 148.687 141.303 146.682 141.743 136.062C142.277 123.277 127.424 121.883 126.659 136.416C126.107 146.957 122.576 142.455 121.514 135.355C120.604 129.266 104.431 124.759 105.894 134.112C108.201 148.852 105.187 152.933 100.218 136.928C97.0832 126.822 83.1627 130.419 85.0355 139.543Z" fill="#FAFAFA"/>
<path d="M162.033 163.089C160.867 162.613 160.047 161.194 159.701 158.749C152.336 159.759 142.59 161.75 134.923 169.243C124.974 178.976 123.277 189.494 123.36 196.532C123.426 202.205 126.519 204.892 127.427 196.485C128.571 185.864 136.158 164.832 162.033 163.089Z" fill="#FAFAFA"/>
<path d="M117.076 181.902C117.543 183.651 116.506 185.449 114.755 185.919L114.1 186.095C112.348 186.563 110.55 185.526 110.08 183.777L104.28 162.159C103.812 160.41 104.852 158.609 106.601 158.142L107.255 157.966C109.007 157.495 110.806 158.535 111.279 160.284L117.076 181.902ZM125.757 178.395C126.046 180.243 124.776 181.979 122.925 182.265L122.477 182.336C120.626 182.622 118.891 181.354 118.602 179.504L114.364 152.248C114.075 150.4 115.346 148.668 117.197 148.379L117.645 148.308C119.498 148.022 121.234 149.289 121.522 151.14L125.757 178.395ZM134.205 178.184C134.101 180.012 132.531 181.407 130.699 181.305L130.256 181.277C128.422 181.17 127.025 179.605 127.13 177.774L128.681 150.829C128.788 149.001 130.358 147.601 132.19 147.705L132.632 147.73C134.464 147.837 135.861 149.405 135.759 151.236L134.205 178.184ZM142.521 181.726C142.123 183.428 140.426 184.489 138.715 184.096L137.835 183.893C136.13 183.497 135.069 181.797 135.462 180.095L141.388 154.547C141.784 152.845 143.487 151.784 145.192 152.18L146.074 152.383C147.779 152.779 148.838 154.479 148.445 156.181L142.521 181.726ZM149.292 196.952C148.346 198.586 146.253 199.147 144.617 198.201L144.27 198C142.634 197.057 142.073 194.967 143.019 193.336L153.178 175.758C154.121 174.125 156.216 173.564 157.853 174.507L158.199 174.708C159.835 175.651 160.394 177.744 159.45 179.377L149.292 196.952Z" fill="#59B5C2"/>
<path d="M108.108 176.421C108.977 180.659 107.775 185.798 107.775 190.878C107.775 195.954 111.623 212.581 129.506 212.581C147.386 212.581 148.517 197.689 151.234 193.289C153.951 188.892 150.565 181.506 147.95 184.781C144.408 189.219 141.675 188.496 143.16 179.916C144.265 173.52 137.792 170.434 136.637 176.206C135.743 180.667 134.283 179.737 134.489 174.804C134.736 168.867 127.826 168.22 127.471 174.969C127.215 179.864 125.571 177.774 125.078 174.474C124.655 171.647 117.131 169.554 117.81 173.899C118.885 180.744 117.48 182.639 115.17 175.205C113.71 170.511 107.236 172.183 108.108 176.421Z" fill="#59B5C2"/>
<path d="M143.927 187.355C143.385 187.135 143.003 186.477 142.843 185.342C139.417 185.809 134.882 186.733 131.315 190.215C126.687 194.736 125.898 199.62 125.936 202.887C125.967 205.524 127.405 206.77 127.828 202.865C128.359 197.934 131.89 188.166 143.927 187.355Z" fill="#59B5C2"/>
<path d="M218.062 231.375L218.469 233.156V249H214.688V231.375H218.062ZM227.812 233.312C228.167 233.667 228.438 234.083 228.625 234.562C228.833 235.021 228.979 235.51 229.062 236.031C229.167 236.531 229.229 237.042 229.25 237.562C229.271 238.083 229.281 238.594 229.281 239.094V248.375V249H225.469V239.406C225.469 238.698 225.438 238.021 225.375 237.375C225.312 236.729 225.167 236.156 224.938 235.656C224.708 235.156 224.396 234.771 224 234.5C223.604 234.208 223.052 234.062 222.344 234.062C222.052 234.062 221.656 234.115 221.156 234.219C220.677 234.302 220.208 234.448 219.75 234.656V232.25C220.312 231.958 220.917 231.708 221.562 231.5C222.229 231.292 222.875 231.188 223.5 231.188C224.438 231.188 225.229 231.385 225.875 231.781C226.521 232.156 227.167 232.667 227.812 233.312ZM242.688 231.219C243.812 231.323 244.823 231.625 245.719 232.125C246.635 232.625 247.417 233.271 248.062 234.062C248.708 234.854 249.198 235.76 249.531 236.781C249.885 237.802 250.062 238.865 250.062 239.969C250.062 240.469 250.031 240.969 249.969 241.469H239.25V238.719H246.469C246.469 238.177 246.375 237.656 246.188 237.156C246.021 236.656 245.76 236.198 245.406 235.781C245.073 235.344 244.677 234.979 244.219 234.688C243.76 234.396 243.25 234.219 242.688 234.156V231.219ZM242.562 246.062C242.792 246.062 243.073 246.042 243.406 246C243.76 245.938 244.125 245.844 244.5 245.719C244.896 245.573 245.281 245.396 245.656 245.188C246.052 244.979 246.396 244.729 246.688 244.438L248.062 246.531C247.375 247.385 246.573 248.031 245.656 248.469C244.74 248.906 243.573 249.125 242.156 249.125C241.01 249.125 239.938 248.896 238.938 248.438C237.938 247.958 237.083 247.312 236.375 246.5C235.667 245.688 235.104 244.74 234.688 243.656C234.271 242.573 234.062 241.406 234.062 240.156C234.062 238.969 234.25 237.844 234.625 236.781C235.021 235.719 235.552 234.792 236.219 234C236.885 233.188 237.656 232.531 238.531 232.031C239.427 231.531 240.385 231.25 241.406 231.188V234.188C240.635 234.333 240 234.646 239.5 235.125C239 235.604 238.604 236.156 238.312 236.781C238.042 237.385 237.844 238.01 237.719 238.656C237.615 239.302 237.562 239.854 237.562 240.312C237.562 241.125 237.656 241.885 237.844 242.594C238.052 243.281 238.365 243.885 238.781 244.406C239.198 244.906 239.708 245.312 240.312 245.625C240.938 245.917 241.688 246.062 242.562 246.062ZM254.438 256.062C253.812 256.062 253.146 255.979 252.438 255.812C251.708 255.646 251.167 255.448 250.812 255.219L252.031 252.938C252.323 253.104 252.667 253.208 253.062 253.25C253.479 253.312 253.771 253.344 253.938 253.344C254.625 253.344 255.135 253.062 255.469 252.5C255.802 251.958 256.021 251.271 256.125 250.438C256.25 249.604 256.302 248.719 256.281 247.781C256.281 246.844 256.292 245.99 256.312 245.219V231.375H260.125V245.25C260.125 246.042 260.125 246.865 260.125 247.719C260.125 248.552 260.073 249.365 259.969 250.156C259.865 250.969 259.708 251.729 259.5 252.438C259.292 253.146 258.979 253.771 258.562 254.312C258.146 254.854 257.594 255.281 256.906 255.594C256.24 255.906 255.417 256.062 254.438 256.062ZM260.438 225.75C260.438 226.375 260.219 226.906 259.781 227.344C259.365 227.76 258.844 227.969 258.219 227.969C257.594 227.969 257.062 227.75 256.625 227.312C256.208 226.875 256 226.354 256 225.75C256 225.125 256.219 224.594 256.656 224.156C257.094 223.719 257.615 223.5 258.219 223.5C258.844 223.5 259.365 223.719 259.781 224.156C260.219 224.594 260.438 225.125 260.438 225.75ZM265.062 236.406C265.062 235.615 265.208 234.906 265.5 234.281C265.792 233.635 266.198 233.094 266.719 232.656C267.24 232.198 267.823 231.844 268.469 231.594C269.135 231.323 269.823 231.156 270.531 231.094V234.219C269.99 234.323 269.562 234.542 269.25 234.875C268.958 235.208 268.812 235.677 268.812 236.281C268.812 236.781 268.969 237.188 269.281 237.5C269.615 237.792 270.031 238.052 270.531 238.281V241.625C270.177 241.521 269.812 241.406 269.438 241.281C269.083 241.135 268.729 240.979 268.375 240.812C267.271 240.229 266.438 239.615 265.875 238.969C265.333 238.323 265.062 237.469 265.062 236.406ZM275.5 235.094C274.938 234.802 274.333 234.583 273.688 234.438C273.062 234.292 272.438 234.198 271.812 234.156V231.062C272.75 231.104 273.615 231.24 274.406 231.469C275.198 231.677 275.969 232.021 276.719 232.5L275.5 235.094ZM266.719 245.062C267.135 245.354 267.625 245.625 268.188 245.875C268.771 246.125 269.5 246.25 270.375 246.25H270.531V249.156C270.01 249.156 269.531 249.135 269.094 249.094C268.656 249.073 268.219 249.01 267.781 248.906C267.365 248.781 266.938 248.615 266.5 248.406C266.062 248.198 265.604 247.927 265.125 247.594L266.719 245.062ZM271.812 238.781C272.438 238.99 273.073 239.219 273.719 239.469C274.365 239.719 274.948 240.031 275.469 240.406C276.01 240.781 276.448 241.25 276.781 241.812C277.135 242.354 277.312 243.042 277.312 243.875C277.312 244.688 277.167 245.396 276.875 246C276.583 246.604 276.188 247.125 275.688 247.562C275.208 248 274.635 248.344 273.969 248.594C273.302 248.844 272.583 249.01 271.812 249.094V246.125C272.521 246 273.062 245.781 273.438 245.469C273.833 245.135 274.031 244.698 274.031 244.156C274.031 243.615 273.812 243.198 273.375 242.906C272.958 242.594 272.438 242.323 271.812 242.094V238.781ZM287.25 243.656C287.25 244.365 287.344 244.917 287.531 245.312C287.719 245.708 287.979 246.01 288.312 246.219C288.667 246.427 289.052 246.562 289.469 246.625C289.906 246.667 290.365 246.688 290.844 246.688V249C290.573 249.042 290.302 249.073 290.031 249.094C289.802 249.115 289.521 249.125 289.188 249.125C288.875 249.146 288.562 249.156 288.25 249.156C287.938 249.156 287.615 249.146 287.281 249.125C286.969 249.104 286.698 249.073 286.469 249.031C285.76 248.906 285.208 248.604 284.812 248.125C284.417 247.625 284.115 247.083 283.906 246.5C283.719 245.896 283.594 245.312 283.531 244.75C283.49 244.188 283.469 243.75 283.469 243.438V233.938H281.156V231.375H283.469V226.375H287.25V231.375H290.062V233.938H287.25V243.656ZM303.469 231.219C304.594 231.323 305.604 231.625 306.5 232.125C307.417 232.625 308.198 233.271 308.844 234.062C309.49 234.854 309.979 235.76 310.312 236.781C310.667 237.802 310.844 238.865 310.844 239.969C310.844 240.469 310.812 240.969 310.75 241.469H300.031V238.719H307.25C307.25 238.177 307.156 237.656 306.969 237.156C306.802 236.656 306.542 236.198 306.188 235.781C305.854 235.344 305.458 234.979 305 234.688C304.542 234.396 304.031 234.219 303.469 234.156V231.219ZM303.344 246.062C303.573 246.062 303.854 246.042 304.188 246C304.542 245.938 304.906 245.844 305.281 245.719C305.677 245.573 306.062 245.396 306.438 245.188C306.833 244.979 307.177 244.729 307.469 244.438L308.844 246.531C308.156 247.385 307.354 248.031 306.438 248.469C305.521 248.906 304.354 249.125 302.938 249.125C301.792 249.125 300.719 248.896 299.719 248.438C298.719 247.958 297.865 247.312 297.156 246.5C296.448 245.688 295.885 244.74 295.469 243.656C295.052 242.573 294.844 241.406 294.844 240.156C294.844 238.969 295.031 237.844 295.406 236.781C295.802 235.719 296.333 234.792 297 234C297.667 233.188 298.438 232.531 299.312 232.031C300.208 231.531 301.167 231.25 302.188 231.188V234.188C301.417 234.333 300.781 234.646 300.281 235.125C299.781 235.604 299.385 236.156 299.094 236.781C298.823 237.385 298.625 238.01 298.5 238.656C298.396 239.302 298.344 239.854 298.344 240.312C298.344 241.125 298.438 241.885 298.625 242.594C298.833 243.281 299.146 243.885 299.562 244.406C299.979 244.906 300.49 245.312 301.094 245.625C301.719 245.917 302.469 246.062 303.344 246.062ZM324.188 236.406C324.188 235.615 324.333 234.906 324.625 234.281C324.917 233.635 325.323 233.094 325.844 232.656C326.365 232.198 326.948 231.844 327.594 231.594C328.26 231.323 328.948 231.156 329.656 231.094V234.219C329.115 234.323 328.688 234.542 328.375 234.875C328.083 235.208 327.938 235.677 327.938 236.281C327.938 236.781 328.094 237.188 328.406 237.5C328.74 237.792 329.156 238.052 329.656 238.281V241.625C329.302 241.521 328.938 241.406 328.562 241.281C328.208 241.135 327.854 240.979 327.5 240.812C326.396 240.229 325.562 239.615 325 238.969C324.458 238.323 324.188 237.469 324.188 236.406ZM334.625 235.094C334.062 234.802 333.458 234.583 332.812 234.438C332.188 234.292 331.562 234.198 330.938 234.156V231.062C331.875 231.104 332.74 231.24 333.531 231.469C334.323 231.677 335.094 232.021 335.844 232.5L334.625 235.094ZM325.844 245.062C326.26 245.354 326.75 245.625 327.312 245.875C327.896 246.125 328.625 246.25 329.5 246.25H329.656V249.156C329.135 249.156 328.656 249.135 328.219 249.094C327.781 249.073 327.344 249.01 326.906 248.906C326.49 248.781 326.062 248.615 325.625 248.406C325.188 248.198 324.729 247.927 324.25 247.594L325.844 245.062ZM330.938 238.781C331.562 238.99 332.198 239.219 332.844 239.469C333.49 239.719 334.073 240.031 334.594 240.406C335.135 240.781 335.573 241.25 335.906 241.812C336.26 242.354 336.438 243.042 336.438 243.875C336.438 244.688 336.292 245.396 336 246C335.708 246.604 335.312 247.125 334.812 247.562C334.333 248 333.76 248.344 333.094 248.594C332.427 248.844 331.708 249.01 330.938 249.094V246.125C331.646 246 332.188 245.781 332.562 245.469C332.958 245.135 333.156 244.698 333.156 244.156C333.156 243.615 332.938 243.198 332.5 242.906C332.083 242.594 331.562 242.323 330.938 242.094V238.781ZM344.406 243.688C344.406 244.625 344.594 245.323 344.969 245.781C345.365 246.24 345.927 246.51 346.656 246.594V249.125C346.573 249.146 346.438 249.156 346.25 249.156C345.542 249.156 344.854 249.062 344.188 248.875C343.542 248.688 342.969 248.385 342.469 247.969C341.969 247.552 341.573 247 341.281 246.312C341.01 245.625 340.875 244.781 340.875 243.781C340.875 242.823 341.073 242 341.469 241.312C341.885 240.604 342.406 240.031 343.031 239.594C343.677 239.135 344.406 238.802 345.219 238.594C346.031 238.365 346.854 238.25 347.688 238.25H349.062V240.469H348.375C347.958 240.469 347.521 240.51 347.062 240.594C346.604 240.677 346.177 240.833 345.781 241.062C345.385 241.292 345.052 241.625 344.781 242.062C344.531 242.479 344.406 243.021 344.406 243.688ZM354.125 243.781C354.125 243.948 354.135 244.198 354.156 244.531C354.177 244.844 354.219 245.167 354.281 245.5C354.344 245.833 354.438 246.135 354.562 246.406C354.708 246.677 354.896 246.854 355.125 246.938L354.125 249.031C353.854 249.031 353.562 248.969 353.25 248.844C352.958 248.719 352.667 248.542 352.375 248.312C352.104 248.083 351.865 247.833 351.656 247.562C351.469 247.271 351.323 246.958 351.219 246.625C351.01 247.146 350.594 247.615 349.969 248.031C349.365 248.427 348.688 248.719 347.938 248.906V246.531C348.438 246.427 348.885 246.229 349.281 245.938C349.698 245.625 350.052 245.26 350.344 244.844V238.25C350.344 237.229 350.292 236.417 350.188 235.812C350.083 235.208 349.906 234.771 349.656 234.5C349.406 234.208 349.094 234.031 348.719 233.969C348.365 233.885 347.938 233.844 347.438 233.844C346.979 233.844 346.542 233.906 346.125 234.031C345.729 234.135 345.354 234.271 345 234.438C344.667 234.583 344.365 234.75 344.094 234.938C343.844 235.125 343.656 235.271 343.531 235.375L342.125 233.219C342.333 232.99 342.646 232.76 343.062 232.531C343.479 232.281 343.958 232.062 344.5 231.875C345.042 231.688 345.625 231.542 346.25 231.438C346.896 231.312 347.562 231.25 348.25 231.25C348.875 231.25 349.479 231.312 350.062 231.438C350.667 231.562 351.208 231.771 351.688 232.062C352.188 232.354 352.615 232.75 352.969 233.25C353.344 233.729 353.604 234.333 353.75 235.062C353.896 235.792 353.99 236.531 354.031 237.281C354.094 238.01 354.125 238.74 354.125 239.469V243.531V243.781ZM363.5 231.375L363.906 233.188V249H360.094V231.375H363.5ZM378.25 231.188C378.958 231.188 379.625 231.333 380.25 231.625C380.875 231.896 381.417 232.292 381.875 232.812C382.354 233.333 382.719 233.958 382.969 234.688C383.24 235.396 383.375 236.167 383.375 237V249H379.625V239.406C379.625 238.698 379.615 238.031 379.594 237.406C379.594 236.76 379.531 236.188 379.406 235.688C379.281 235.188 379.073 234.802 378.781 234.531C378.51 234.24 378.083 234.094 377.5 234.094C377.354 234.094 377.042 234.125 376.562 234.188C376.083 234.25 375.531 234.427 374.906 234.719V232.25C375.469 231.917 376.042 231.656 376.625 231.469C377.208 231.281 377.75 231.188 378.25 231.188ZM372.844 233.594C373.094 233.969 373.271 234.375 373.375 234.812C373.5 235.229 373.573 235.667 373.594 236.125C373.635 236.583 373.646 237.062 373.625 237.562C373.625 238.042 373.625 238.552 373.625 239.094V249H369.844V239.406C369.844 238.698 369.844 238.031 369.844 237.406C369.844 236.76 369.781 236.188 369.656 235.688C369.531 235.188 369.323 234.802 369.031 234.531C368.74 234.24 368.312 234.094 367.75 234.094C367.5 234.094 367.125 234.146 366.625 234.25C366.146 234.333 365.667 234.49 365.188 234.719V232.25C365.688 231.958 366.219 231.719 366.781 231.531C367.365 231.344 367.938 231.25 368.5 231.25C369.458 231.25 370.26 231.448 370.906 231.844C371.573 232.24 372.219 232.823 372.844 233.594ZM392.531 249H388.719V231.375H392.531V249ZM392.875 225.75C392.875 226.375 392.656 226.906 392.219 227.344C391.781 227.76 391.25 227.969 390.625 227.969C390 227.969 389.469 227.75 389.031 227.312C388.615 226.875 388.406 226.354 388.406 225.75C388.406 225.125 388.625 224.594 389.062 224.156C389.5 223.719 390.021 223.5 390.625 223.5C391.25 223.5 391.781 223.719 392.219 224.156C392.656 224.594 392.875 225.125 392.875 225.75ZM409.219 246.875C409.219 247.5 409 248.031 408.562 248.469C408.125 248.906 407.594 249.125 406.969 249.125C406.344 249.125 405.812 248.906 405.375 248.469C404.958 248.031 404.75 247.5 404.75 246.875C404.75 246.25 404.969 245.729 405.406 245.312C405.844 244.875 406.365 244.656 406.969 244.656C407.594 244.656 408.125 244.875 408.562 245.312C409 245.729 409.219 246.25 409.219 246.875Z" fill="#59B5C2"/>
</svg>
