<svg width="238" height="55" viewBox="0 0 238 55" fill="none" xmlns="http://www.w3.org/2000/svg">
<path d="M51.5552 8.84766H54.8364V29H51.5552V8.84766ZM57.6255 8.84766C59.3208 8.84766 60.8065 9.12109 62.0825 9.66797C63.3768 10.1966 64.4432 10.9076 65.2817 11.8008C66.1385 12.694 66.7765 13.7148 67.1958 14.8633C67.6151 15.9935 67.8247 17.1602 67.8247 18.3633C67.8247 20.0221 67.6424 21.444 67.2778 22.6289C66.9315 23.7956 66.4849 24.7799 65.938 25.582C65.3911 26.3659 64.7713 26.9857 64.0786 27.4414C63.4041 27.8971 62.7479 28.2435 62.1099 28.4805C61.4718 28.6992 60.8885 28.8451 60.3599 28.918C59.8312 28.9727 59.4393 29 59.1841 29H55.9575V26.5938H58.0903C60.3143 26.5938 61.9185 25.8828 62.9028 24.4609C63.8872 23.0391 64.3794 20.9792 64.3794 18.2812C64.3794 17.4427 64.2791 16.6133 64.0786 15.793C63.8781 14.9727 63.4862 14.2344 62.9028 13.5781C62.3377 12.9036 61.563 12.3659 60.5786 11.9648C59.5942 11.5456 58.3182 11.3359 56.7505 11.3359H55.9575V8.84766H57.6255ZM72.4458 8.84766H75.7271V29H72.4458V8.84766ZM86.1177 29H82.645L78.8442 21.6992C78.7896 21.6992 78.7257 21.7083 78.6528 21.7266C78.5981 21.7266 78.507 21.7266 78.3794 21.7266C78.2518 21.7266 78.0604 21.7266 77.8052 21.7266C77.5682 21.7266 77.2492 21.7266 76.8481 21.7266V19.3203H78.7075C79.1086 19.3203 79.5096 19.2565 79.9106 19.1289C80.3117 18.9831 80.6763 18.7552 81.0044 18.4453C81.3325 18.1354 81.5968 17.707 81.7974 17.1602C81.9979 16.5951 82.0981 15.9023 82.0981 15.082C82.0981 14.7539 82.0526 14.3802 81.9614 13.9609C81.8703 13.5234 81.6789 13.1133 81.3872 12.7305C81.1138 12.3294 80.7218 12.0013 80.2114 11.7461C79.701 11.4727 79.0265 11.3359 78.188 11.3359H76.8481V8.84766H78.2427C79.0994 8.84766 79.9471 8.98438 80.7856 9.25781C81.6242 9.53125 82.3716 9.94141 83.0278 10.4883C83.7023 11.0352 84.2401 11.7005 84.6411 12.4844C85.0604 13.25 85.27 14.1159 85.27 15.082C85.27 16.5404 84.9328 17.7799 84.2583 18.8008C83.5838 19.8216 82.6724 20.5781 81.5239 21.0703L86.1177 29ZM103.563 8.84766V11.5L93.9653 25.9102L93.4185 26.3477H103.563V29H90.1646V26.3477L99.7622 11.9375L100.336 11.5H90.1646V8.84766H103.563ZM92.6255 3.02344H95.6333L96.2622 4.17188V6.90625H95.5786L92.6255 3.02344ZM98.0122 3.02344H101.047L98.0669 6.90625H97.3833V4.14453L98.0122 3.02344ZM122.403 8.84766V11.0898H116.387V29H113.079V11.0898H107.063V8.84766H122.403ZM126.395 8.84766H129.731V29H126.395V8.84766ZM138.153 19.9219H130.852V17.6797H138.153V19.9219ZM130.852 26.5117H139V29H130.852V26.5117ZM139 8.84766V11.3359H130.852V8.84766H139ZM150.95 8.84766H154.231V29H150.95V8.84766ZM156.747 8.84766C157.603 8.84766 158.451 8.98438 159.29 9.25781C160.128 9.53125 160.875 9.94141 161.532 10.4883C162.206 11.0352 162.744 11.7005 163.145 12.4844C163.564 13.25 163.774 14.1159 163.774 15.082C163.774 16.1029 163.601 17.0326 163.254 17.8711C162.908 18.6914 162.425 19.3841 161.805 19.9492C161.185 20.5143 160.438 20.9518 159.563 21.2617C158.688 21.5716 157.722 21.7266 156.665 21.7266H155.352V19.3203H157.239C157.64 19.3203 158.032 19.2565 158.415 19.1289C158.816 18.9831 159.18 18.7552 159.508 18.4453C159.836 18.1354 160.101 17.707 160.301 17.1602C160.502 16.5951 160.602 15.9023 160.602 15.082C160.602 14.7539 160.556 14.3802 160.465 13.9609C160.374 13.5234 160.183 13.1133 159.891 12.7305C159.618 12.3294 159.226 12.0013 158.715 11.7461C158.205 11.4727 157.53 11.3359 156.692 11.3359H155.352V8.84766H156.747ZM184.036 29H180.645L175.422 13.9062L170.145 29H166.727L173.782 8.875H177.036L184.036 29ZM177.227 22.6016L178.02 24.8164H172.797L173.563 22.6016H177.227ZM191.637 8.84766V26.5117H200.907V29H188.301V8.84766H191.637ZM215.618 12.7305C215.198 12.2565 214.752 11.901 214.278 11.6641C213.804 11.4271 213.293 11.2904 212.747 11.2539V8.54688C214.788 8.63802 216.502 9.35807 217.887 10.707L215.618 12.7305ZM212.747 26.4297C213.293 26.375 213.804 26.2292 214.278 25.9922C214.77 25.7552 215.217 25.4089 215.618 24.9531L217.887 26.9492C217.194 27.6237 216.42 28.1432 215.563 28.5078C214.706 28.8724 213.767 29.082 212.747 29.1367V26.4297ZM203.887 18.8281C203.887 17.2057 204.079 15.7747 204.461 14.5352C204.862 13.2956 205.409 12.2474 206.102 11.3906C206.795 10.5339 207.606 9.86849 208.536 9.39453C209.484 8.92057 210.514 8.63802 211.625 8.54688V11.2812C211.024 11.3724 210.459 11.582 209.93 11.9102C209.402 12.2201 208.937 12.6758 208.536 13.2773C208.135 13.8789 207.816 14.6445 207.579 15.5742C207.36 16.4857 207.241 17.5703 207.223 18.8281C207.241 20.1042 207.36 21.1979 207.579 22.1094C207.816 23.0208 208.135 23.7865 208.536 24.4062C208.937 25.026 209.402 25.5 209.93 25.8281C210.477 26.1562 211.042 26.3568 211.625 26.4297V29.1094C210.514 29.0365 209.484 28.763 208.536 28.2891C207.606 27.8151 206.795 27.1497 206.102 26.293C205.409 25.4362 204.862 24.388 204.461 23.1484C204.079 21.8906 203.887 20.4505 203.887 18.8281ZM222.672 8.84766H226.008V29H222.672V8.84766ZM234.43 19.9219H227.129V17.6797H234.43V19.9219ZM227.129 26.5117H235.278V29H227.129V26.5117ZM235.278 8.84766V11.3359H227.129V8.84766H235.278Z" fill="#353434"/>
<path d="M53.9407 49.6845L57.3457 49.4145L57.7357 47.7345L58.2307 47.7795L58.4257 49.3695L58.6207 50.4195L57.3907 50.2845H53.6257L52.1257 50.3745V49.8645L52.8007 49.2495L56.5357 43.5795L56.4607 43.3995L53.7307 43.5645L53.4007 45.0195L52.8757 44.9295L52.7257 43.5795L52.6057 42.6045L53.8207 42.7845H58.3207L58.5307 43.3395L58.0507 43.7295L57.0607 45.3045L53.8807 49.5945L53.9407 49.6845ZM61.107 46.2495L61.092 46.3845L61.497 48.4995L62.682 49.6695L64.062 49.8195L65.472 49.0695L65.742 49.4595L64.557 50.4045L63.147 50.5845L61.677 50.2395L60.402 49.1745L59.637 46.9245L59.892 44.9145L60.672 43.5045L62.247 42.6345L63.567 42.4695L64.617 42.7995L65.427 43.5345L65.892 44.8695L65.907 46.1145L65.697 46.2795L63.702 46.4145L61.107 46.2495ZM61.857 43.8195L61.272 44.9595L61.182 45.6345L63.462 45.6645L64.497 45.4395L64.407 44.0445L63.957 43.2795L62.997 43.1445L61.857 43.8195ZM76.4733 50.2845H70.5933V49.4145L74.9133 43.2645H70.8483V42.2445H76.3683V43.2345L72.1083 49.2645H76.4733V50.2845ZM72.8433 41.1945C72.7133 40.9645 72.5383 40.7195 72.3183 40.4595C72.0983 40.1895 71.8683 39.9245 71.6283 39.6645C71.3883 39.4045 71.1783 39.1795 70.9983 38.9895V38.7945H71.8983C72.1583 38.9645 72.4283 39.1695 72.7083 39.4095C72.9883 39.6495 73.2533 39.9045 73.5033 40.1745C73.7733 39.9045 74.0483 39.6495 74.3283 39.4095C74.6083 39.1695 74.8783 38.9645 75.1383 38.7945H76.0683V38.9895C75.8783 39.1795 75.6583 39.4045 75.4083 39.6645C75.1683 39.9245 74.9333 40.1895 74.7033 40.4595C74.4833 40.7195 74.3133 40.9645 74.1933 41.1945H72.8433ZM78.3442 39.6645L79.0342 39.3345L79.7542 39.5745L80.0842 40.3845L79.6642 41.0445L78.9592 41.3295L78.2992 40.9245L77.9842 40.2495L78.3442 39.6645ZM80.0392 44.8395L79.9492 46.3395L79.9942 47.7945L80.0542 49.5345L81.1492 49.8345L81.0742 50.3595L79.3042 50.2845L77.4742 50.3595L77.5042 49.8345L78.4942 49.5345L78.5692 47.9595L78.5392 45.0795L78.4642 43.5195L77.3992 43.5645L77.3242 43.0395L79.3942 42.6345L80.1442 42.7995L80.0392 44.8395ZM82.8776 44.8245L82.2026 43.5045L81.1976 43.2345L81.2726 42.7095L83.1026 42.7845L85.0376 42.7095L85.0076 43.2345L84.0626 43.5345L84.3026 44.4045L85.2776 46.9095L85.8776 49.0995H85.9226L86.3276 47.5695L87.5126 44.4495L87.7526 43.4895L86.6876 43.2345L86.7626 42.7095L88.1276 42.7845L89.7176 42.7095L89.6876 43.2345L88.7576 43.5345L88.1126 44.9145L86.2676 49.8495L85.8176 50.6295L85.3226 50.7345L82.8776 44.8245ZM90.0611 47.4345V45.4695L90.9461 43.6845L92.6411 42.5595L94.6961 42.4845L96.5711 43.6095L97.5461 45.4095L97.3661 48.1545L96.2561 49.9245L93.9311 50.5845L91.9811 50.2095L90.5561 48.9195L90.0611 47.4345ZM91.7111 44.9595L91.6361 46.6395L91.8161 48.3795L92.4611 49.5045L94.0511 49.8945L95.5211 49.2495L95.9561 46.9095L95.8061 44.9595L95.2511 43.7145L94.1561 43.1595L92.6561 43.3245L91.7111 44.9595ZM102.034 50.4345L101.014 50.5845L99.9487 50.2245L99.4687 49.0245L99.5437 46.2345L99.4687 43.7145L98.4337 43.5645L98.3437 43.0395L99.5287 42.7245L100.069 41.2095H100.834L100.789 42.8895L102.604 42.9495L102.514 43.6095L100.939 43.7145L100.879 44.4045L100.939 48.9495L101.239 49.8495L102.649 49.4745L102.874 49.9245L102.034 50.4345ZM105.232 49.4445L106.357 49.7295L107.872 48.8595L107.812 46.8345H106.507L105.352 47.2995L104.827 48.2295L105.232 49.4445ZM109.102 47.5545L109.207 49.6695L110.242 49.8195L110.137 50.3145L108.052 50.4945L107.857 49.6095H107.782L106.297 50.4945H104.737L103.687 49.7295L103.372 48.2595L104.032 47.0895L105.832 46.3095L107.812 46.2345L107.752 44.3595L107.467 43.4295L106.252 43.0845L104.797 43.4295L104.752 45.0195L104.167 45.1395L103.777 43.0845L105.502 42.5745L107.437 42.4845L108.607 43.0545L109.087 44.3445L109.102 47.5545ZM115.573 49.6995L116.818 49.8945L118.213 49.6995L118.543 48.6795L118.138 47.8995L115.348 46.2045L114.748 45.2595L114.718 43.6695L115.783 42.7695L117.358 42.4845L119.563 42.9345L119.248 45.1395L118.618 44.9295L118.333 43.3695L117.298 43.1745L116.173 43.4295L115.888 44.2545L116.248 45.1395L119.128 46.7895L119.833 47.6745L119.893 49.0845L118.873 50.2845L117.073 50.5845L115.828 50.5245L114.433 49.9845L114.808 47.8245L115.453 48.0345L115.573 49.6995ZM126.267 49.4445L127.392 49.7295L128.907 48.8595L128.847 46.8345H127.542L126.387 47.2995L125.862 48.2295L126.267 49.4445ZM130.137 47.5545L130.242 49.6695L131.277 49.8195L131.172 50.3145L129.087 50.4945L128.892 49.6095H128.817L127.332 50.4945H125.772L124.722 49.7295L124.407 48.2595L125.067 47.0895L126.867 46.3095L128.847 46.2345L128.787 44.3595L128.502 43.4295L127.287 43.0845L125.832 43.4295L125.787 45.0195L125.202 45.1395L124.812 43.0845L126.537 42.5745L128.472 42.4845L129.642 43.0545L130.122 44.3445L130.137 47.5545ZM134.189 45.1095V48.3795L134.594 49.3695L135.854 49.5345L137.489 48.5595V46.9695L137.474 45.0945L137.399 43.5345L136.334 43.5795L136.259 43.0545L138.329 42.6495L139.079 42.8145L138.974 44.8545L138.959 46.0545L138.989 46.9695V49.6695L140.039 49.9695L139.964 50.4945H137.909L137.564 49.2345L135.869 50.4795L134.339 50.5845L132.959 49.6395L132.734 48.4395L132.749 45.2295L132.599 43.5195L131.534 43.5645L131.459 43.0395L133.529 42.6345L134.279 42.7995L134.189 45.1095ZM144.207 50.4345L143.187 50.5845L142.122 50.2245L141.642 49.0245L141.717 46.2345L141.642 43.7145L140.607 43.5645L140.517 43.0395L141.702 42.7245L142.242 41.2095H143.007L142.962 42.8895L144.777 42.9495L144.687 43.6095L143.112 43.7145L143.052 44.4045L143.112 48.9495L143.412 49.8495L144.822 49.4745L145.047 49.9245L144.207 50.4345ZM146.43 39.6645L147.12 39.3345L147.84 39.5745L148.17 40.3845L147.75 41.0445L147.045 41.3295L146.385 40.9245L146.07 40.2495L146.43 39.6645ZM148.125 44.8395L148.035 46.3395L148.08 47.7945L148.14 49.5345L149.235 49.8345L149.16 50.3595L147.39 50.2845L145.56 50.3595L145.59 49.8345L146.58 49.5345L146.655 47.9595L146.625 45.0795L146.55 43.5195L145.485 43.5645L145.41 43.0395L147.48 42.6345L148.23 42.7995L148.125 44.8395ZM151.096 49.6995L152.341 49.8945L153.736 49.6995L154.066 48.6795L153.661 47.8995L150.871 46.2045L150.271 45.2595L150.241 43.6695L151.306 42.7695L152.881 42.4845L155.086 42.9345L154.771 45.1395L154.141 44.9295L153.856 43.3695L152.821 43.1745L151.696 43.4295L151.411 44.2545L151.771 45.1395L154.651 46.7895L155.356 47.6745L155.416 49.0845L154.396 50.2845L152.596 50.5845L151.351 50.5245L149.956 49.9845L150.331 47.8245L150.976 48.0345L151.096 49.6995ZM163.69 49.5495L164.755 49.8345L164.68 50.3595L162.91 50.2845L161.08 50.3595L161.11 49.8345L162.1 49.5345L162.205 47.9595L162.145 44.6895L161.74 43.6995L160.465 43.4745L158.98 44.2695L158.95 44.8395L158.86 46.3395L158.89 47.7945L158.965 49.5345L160.06 49.8345L159.985 50.3595L158.215 50.2845L156.385 50.3595L156.415 49.8345L157.405 49.5345L157.51 47.9595L157.45 45.0795L157.375 43.5195L156.31 43.5645L156.235 43.0395L158.305 42.6345L159.055 42.7995L159.01 43.5045L160.465 42.5895L161.995 42.4845L163.375 43.4295L163.45 43.8345L164.95 42.5895L166.48 42.4845L167.86 43.4295L168.085 44.6295L168.055 47.7945L168.175 49.5495L169.24 49.8345L169.165 50.3595L167.395 50.2845L165.565 50.3595L165.595 49.8345L166.585 49.5345L166.69 47.9595L166.63 44.6895L166.225 43.6995L164.95 43.4745L163.57 44.4795L163.6 44.6295L163.57 47.7945L163.69 49.5495ZM171.41 46.2495L171.395 46.3845L171.8 48.4995L172.985 49.6695L174.365 49.8195L175.775 49.0695L176.045 49.4595L174.86 50.4045L173.45 50.5845L171.98 50.2395L170.705 49.1745L169.94 46.9245L170.195 44.9145L170.975 43.5045L172.55 42.6345L173.87 42.4695L174.92 42.7995L175.73 43.5345L176.195 44.8695L176.21 46.1145L176 46.2795L174.005 46.4145L171.41 46.2495ZM172.16 43.8195L171.575 44.9595L171.485 45.6345L173.765 45.6645L174.8 45.4395L174.71 44.0445L174.26 43.2795L173.3 43.1445L172.16 43.8195ZM184.476 49.5495L185.541 49.8345L185.466 50.3595L183.696 50.2845L181.866 50.3595L181.896 49.8345L182.886 49.5345L182.991 47.9595L182.931 44.6895L182.526 43.6995L181.251 43.4745L179.766 44.2695L179.736 44.8395L179.646 46.3395L179.676 47.7945L179.751 49.5345L180.846 49.8345L180.771 50.3595L179.001 50.2845L177.171 50.3595L177.201 49.8345L178.191 49.5345L178.296 47.9595L178.236 45.0795L178.161 43.5195L177.096 43.5645L177.021 43.0395L179.091 42.6345L179.841 42.7995L179.796 43.5045L181.251 42.5895L182.781 42.4845L184.161 43.4295L184.236 43.8345L185.736 42.5895L187.266 42.4845L188.646 43.4295L188.871 44.6295L188.841 47.7945L188.961 49.5495L190.026 49.8345L189.951 50.3595L188.181 50.2845L186.351 50.3595L186.381 49.8345L187.371 49.5345L187.476 47.9595L187.416 44.6895L187.011 43.6995L185.736 43.4745L184.356 44.4795L184.386 44.6295L184.356 47.7945L184.476 49.5495Z" fill="#353434"/>
<path d="M41.9307 14.2609C41.9307 8.0414 36.8768 3 30.6406 3C26.8564 3 23.5135 4.86503 21.4653 7.71252C19.4171 4.86503 16.0743 3 12.2901 3C6.05389 3 1 8.0414 1 14.2609C1 15.1393 1.1124 15.9927 1.3039 16.817C2.87335 26.5293 13.7013 36.7745 21.4653 39.5845C29.2252 36.7745 40.0573 26.5293 41.6226 16.817C41.8183 15.9927 41.9307 15.1393 41.9307 14.2609Z" fill="#ED9D8C"/>
<path d="M17.0778 25.874C17.236 26.4693 16.8863 27.0813 16.2951 27.2395L16.0703 27.3019C15.4792 27.4601 14.8714 27.1063 14.7132 26.5109L12.7482 19.1466C12.5942 18.5513 12.9439 17.9393 13.535 17.777L13.7557 17.7187C14.351 17.5605 14.9588 17.9144 15.117 18.5097L17.0778 25.874ZM20.0127 24.6751C20.1126 25.3078 19.6838 25.899 19.0552 25.9947L18.9053 26.0197C18.2767 26.1155 17.6897 25.6867 17.594 25.0539L16.1619 15.7704C16.062 15.1418 16.4949 14.5506 17.1194 14.4549L17.2693 14.4299C17.8979 14.33 18.4849 14.763 18.5806 15.3916L20.0127 24.6751ZM22.8727 24.6043C22.8352 25.2287 22.3023 25.7033 21.6862 25.67L21.5363 25.6575C20.916 25.6242 20.4415 25.0872 20.4789 24.4669L21.0035 15.2875C21.0368 14.6672 21.5696 14.1885 22.1899 14.2259L22.3398 14.2343C22.9601 14.2676 23.4305 14.8046 23.3972 15.4249L22.8727 24.6043ZM25.6827 25.8116C25.5495 26.3902 24.975 26.7524 24.3963 26.6192L24.0966 26.5484C23.5221 26.4152 23.1641 25.8365 23.2973 25.2579L25.2997 16.5531C25.4329 15.9744 26.0074 15.6122 26.586 15.7496L26.8858 15.8162C27.4603 15.9536 27.8183 16.5322 27.6851 17.1109L25.6827 25.8116ZM27.9723 30.9987C27.6518 31.5523 26.9441 31.7438 26.3904 31.4233L26.2738 31.3567C25.7201 31.032 25.5328 30.3201 25.8534 29.7664L29.2878 23.78C29.6042 23.2222 30.3161 23.0307 30.8656 23.3512L30.9863 23.422C31.54 23.7426 31.7274 24.4544 31.4068 25.0123L27.9723 30.9987Z" fill="white"/>
<path d="M14.0428 24.0048C14.3384 25.4494 13.9346 27.1979 13.9346 28.9297C13.9346 30.6573 15.2334 36.319 21.2823 36.319C27.327 36.319 27.71 31.2485 28.63 29.7498C29.5458 28.2511 28.4052 25.7366 27.5185 26.8523C26.3195 28.3635 25.3953 28.1179 25.8991 25.1955C26.2737 23.0182 24.084 21.965 23.6927 23.9299C23.3888 25.4494 22.8975 25.133 22.9641 23.4553C23.0516 21.4321 20.7119 21.2115 20.5912 23.5094C20.508 25.1788 19.9501 24.4669 19.7836 23.3429C19.6421 22.3771 17.0943 21.6652 17.3274 23.1473C17.6896 25.4785 17.215 26.1238 16.4324 23.5927C15.9411 21.9941 13.7514 22.5603 14.0428 24.0048Z" fill="white"/>
<path d="M26.1568 27.7307C25.9736 27.6558 25.8446 27.431 25.7904 27.0438C24.6331 27.202 23.1011 27.5184 21.8939 28.7049C20.3286 30.241 20.0621 31.9062 20.0746 33.0177C20.083 33.9169 20.57 34.3416 20.7116 33.0136C20.8947 31.3317 22.0854 28.0055 26.1568 27.7307Z" fill="white"/>
<path d="M18.872 30.6531C18.9553 30.9528 18.7762 31.2567 18.4807 31.34L18.3724 31.3691C18.0727 31.4482 17.7688 31.2734 17.6897 30.9737L16.7114 27.2936C16.6323 26.998 16.8071 26.6899 17.1027 26.6108L17.2151 26.5817C17.5107 26.5026 17.8146 26.6774 17.8937 26.9772L18.872 30.6531ZM20.3415 30.0578C20.3915 30.3742 20.175 30.6698 19.8628 30.7156L19.7879 30.728C19.4756 30.778 19.1801 30.5615 19.1301 30.2451L18.4141 25.6075C18.3683 25.2953 18.5806 24.9997 18.8928 24.9498L18.9719 24.9373C19.2841 24.8873 19.5755 25.1038 19.6255 25.4202L20.3415 30.0578ZM21.7695 30.0203C21.7528 30.3326 21.4864 30.5698 21.1783 30.5532L21.1034 30.549C20.7911 30.5324 20.558 30.2659 20.5747 29.9537L20.8369 25.3661C20.8536 25.0539 21.12 24.8166 21.4281 24.8332L21.503 24.8415C21.8152 24.8582 22.0484 25.1246 22.0317 25.4369L21.7695 30.0203ZM23.1765 30.624C23.1099 30.9154 22.8227 31.0944 22.5313 31.0278L22.3856 30.9945C22.0942 30.9279 21.9152 30.6365 21.9818 30.3492L22.985 25.9989C23.0517 25.7116 23.3389 25.5284 23.6262 25.5951L23.776 25.6325C24.0674 25.6991 24.2464 25.9864 24.1798 26.2778L23.1765 30.624ZM24.3214 33.2175C24.1632 33.4923 23.8093 33.588 23.5304 33.4298L23.4721 33.3965C23.1974 33.2342 23.1016 32.8803 23.2598 32.6014L24.9791 29.6082C25.1373 29.3334 25.4912 29.2377 25.7701 29.3959L25.8284 29.4292C26.1031 29.5915 26.1989 29.9454 26.0407 30.2243L24.3214 33.2175Z" fill="#59B5C2"/>
<path d="M17.3564 29.7206C17.5021 30.445 17.3022 31.3192 17.3022 32.181C17.3022 33.0469 17.9517 35.8777 20.974 35.8777C24.0005 35.8777 24.192 33.3425 24.6499 32.5931C25.1079 31.8438 24.5375 30.5865 24.0963 31.1444C23.4968 31.9021 23.0347 31.7772 23.2845 30.316C23.4718 29.2294 22.3769 28.7049 22.1813 29.6873C22.0314 30.445 21.7816 30.2868 21.8191 29.4459C21.8607 28.4384 20.6909 28.326 20.6326 29.475C20.5869 30.3076 20.3121 29.9538 20.2247 29.3918C20.1539 28.9089 18.8842 28.555 18.9966 29.2919C19.1798 30.4575 18.9425 30.7822 18.5511 29.5167C18.3055 28.7174 17.2107 29.0004 17.3564 29.7206Z" fill="#59B5C2"/>
<path d="M23.4134 31.5816C23.3218 31.5441 23.2593 31.4317 23.2302 31.2402C22.6515 31.3193 21.8855 31.4775 21.2819 32.0687C20.4993 32.8388 20.366 33.6714 20.3702 34.2251C20.3785 34.6747 20.62 34.887 20.6908 34.2251C20.7823 33.3842 21.3777 31.7231 23.4134 31.5816Z" fill="#59B5C2"/>
<path d="M41.9307 14.2609C41.9307 8.0414 36.8768 3 30.6406 3C26.8564 3 23.5135 4.86503 21.4653 7.71252C19.4171 4.86503 16.0743 3 12.2901 3C6.05389 3 1 8.0414 1 14.2609C1 15.1393 1.1124 15.9927 1.3039 16.817C2.87335 26.5293 13.7013 36.7745 21.4653 39.5845C29.2252 36.7745 40.0573 26.5293 41.6226 16.817C41.8183 15.9927 41.9307 15.1393 41.9307 14.2609Z" fill="#ED9D8C"/>
<path d="M17.0778 25.874C17.236 26.4693 16.8863 27.0813 16.2951 27.2395L16.0703 27.3019C15.4792 27.4601 14.8714 27.1063 14.7132 26.5109L12.7482 19.1466C12.5942 18.5513 12.9439 17.9393 13.535 17.777L13.7557 17.7187C14.351 17.5605 14.9588 17.9144 15.117 18.5097L17.0778 25.874ZM20.0127 24.6751C20.1126 25.3078 19.6838 25.899 19.0552 25.9947L18.9053 26.0197C18.2767 26.1155 17.6897 25.6867 17.594 25.0539L16.1619 15.7704C16.062 15.1418 16.4949 14.5506 17.1194 14.4549L17.2693 14.4299C17.8979 14.33 18.4849 14.763 18.5806 15.3916L20.0127 24.6751ZM22.8727 24.6043C22.8352 25.2287 22.3023 25.7033 21.6862 25.67L21.5363 25.6575C20.916 25.6242 20.4415 25.0872 20.4789 24.4669L21.0035 15.2875C21.0368 14.6672 21.5696 14.1885 22.1899 14.2259L22.3398 14.2343C22.9601 14.2676 23.4305 14.8046 23.3972 15.4249L22.8727 24.6043ZM25.6827 25.8116C25.5495 26.3902 24.975 26.7524 24.3963 26.6192L24.0966 26.5484C23.5221 26.4152 23.1641 25.8365 23.2973 25.2579L25.2997 16.5531C25.4329 15.9744 26.0074 15.6122 26.586 15.7496L26.8858 15.8162C27.4603 15.9536 27.8183 16.5322 27.6851 17.1109L25.6827 25.8116ZM27.9723 30.9987C27.6518 31.5523 26.9441 31.7438 26.3904 31.4233L26.2738 31.3567C25.7201 31.032 25.5328 30.3201 25.8534 29.7664L29.2878 23.78C29.6042 23.2222 30.3161 23.0307 30.8656 23.3512L30.9863 23.422C31.54 23.7426 31.7274 24.4544 31.4068 25.0123L27.9723 30.9987Z" fill="white"/>
<path d="M14.0428 24.0048C14.3384 25.4494 13.9346 27.1979 13.9346 28.9297C13.9346 30.6573 15.2334 36.319 21.2823 36.319C27.327 36.319 27.71 31.2485 28.63 29.7498C29.5458 28.2511 28.4052 25.7366 27.5185 26.8523C26.3195 28.3635 25.3953 28.1179 25.8991 25.1955C26.2737 23.0182 24.084 21.965 23.6927 23.9299C23.3888 25.4494 22.8975 25.133 22.9641 23.4553C23.0516 21.4321 20.7119 21.2115 20.5912 23.5094C20.508 25.1788 19.9501 24.4669 19.7836 23.3429C19.6421 22.3771 17.0943 21.6652 17.3274 23.1473C17.6896 25.4785 17.215 26.1238 16.4324 23.5927C15.9411 21.9941 13.7514 22.5603 14.0428 24.0048Z" fill="white"/>
<path d="M26.1568 27.7307C25.9736 27.6558 25.8446 27.431 25.7904 27.0438C24.6331 27.202 23.1011 27.5184 21.8939 28.7049C20.3286 30.241 20.0621 31.9062 20.0746 33.0177C20.083 33.9169 20.57 34.3416 20.7116 33.0136C20.8947 31.3317 22.0854 28.0055 26.1568 27.7307Z" fill="white"/>
<path d="M18.872 30.6531C18.9553 30.9528 18.7762 31.2567 18.4807 31.34L18.3724 31.3691C18.0727 31.4482 17.7688 31.2734 17.6897 30.9737L16.7114 27.2936C16.6323 26.998 16.8071 26.6899 17.1027 26.6108L17.2151 26.5817C17.5107 26.5026 17.8146 26.6774 17.8937 26.9772L18.872 30.6531ZM20.3415 30.0578C20.3915 30.3742 20.175 30.6698 19.8628 30.7156L19.7879 30.728C19.4756 30.778 19.1801 30.5615 19.1301 30.2451L18.4141 25.6075C18.3683 25.2953 18.5806 24.9997 18.8928 24.9498L18.9719 24.9373C19.2841 24.8873 19.5755 25.1038 19.6255 25.4202L20.3415 30.0578ZM21.7695 30.0203C21.7528 30.3326 21.4864 30.5698 21.1783 30.5532L21.1034 30.549C20.7911 30.5324 20.558 30.2659 20.5747 29.9537L20.8369 25.3661C20.8536 25.0539 21.12 24.8166 21.4281 24.8332L21.503 24.8415C21.8152 24.8582 22.0484 25.1246 22.0317 25.4369L21.7695 30.0203ZM23.1765 30.624C23.1099 30.9154 22.8227 31.0944 22.5313 31.0278L22.3856 30.9945C22.0942 30.9279 21.9152 30.6365 21.9818 30.3492L22.985 25.9989C23.0517 25.7116 23.3389 25.5284 23.6262 25.5951L23.776 25.6325C24.0674 25.6991 24.2464 25.9864 24.1798 26.2778L23.1765 30.624ZM24.3214 33.2175C24.1632 33.4923 23.8093 33.588 23.5304 33.4298L23.4721 33.3965C23.1974 33.2342 23.1016 32.8803 23.2598 32.6014L24.9791 29.6082C25.1373 29.3334 25.4912 29.2377 25.7701 29.3959L25.8284 29.4292C26.1031 29.5915 26.1989 29.9454 26.0407 30.2243L24.3214 33.2175Z" fill="#59B5C2"/>
<path d="M17.3564 29.7206C17.5021 30.445 17.3022 31.3192 17.3022 32.181C17.3022 33.0469 17.9517 35.8777 20.974 35.8777C24.0005 35.8777 24.192 33.3425 24.6499 32.5931C25.1079 31.8438 24.5375 30.5865 24.0963 31.1444C23.4968 31.9021 23.0347 31.7772 23.2845 30.316C23.4718 29.2294 22.3769 28.7049 22.1813 29.6873C22.0314 30.445 21.7816 30.2868 21.8191 29.4459C21.8607 28.4384 20.6909 28.326 20.6326 29.475C20.5869 30.3076 20.3121 29.9538 20.2247 29.3918C20.1539 28.9089 18.8842 28.555 18.9966 29.2919C19.1798 30.4575 18.9425 30.7822 18.5511 29.5167C18.3055 28.7174 17.2107 29.0004 17.3564 29.7206Z" fill="#59B5C2"/>
<path d="M23.4134 31.5816C23.3218 31.5441 23.2593 31.4317 23.2302 31.2402C22.6515 31.3193 21.8855 31.4775 21.2819 32.0687C20.4993 32.8388 20.366 33.6714 20.3702 34.2251C20.3785 34.6747 20.62 34.887 20.6908 34.2251C20.7823 33.3842 21.3777 31.7231 23.4134 31.5816Z" fill="#59B5C2"/>
</svg>
