<svg width="230" height="55" viewBox="0 0 230 55" fill="none" xmlns="http://www.w3.org/2000/svg">
<path d="M43.5552 8.84766H46.8364V29H43.5552V8.84766ZM49.6255 8.84766C51.3208 8.84766 52.8065 9.12109 54.0825 9.66797C55.3768 10.1966 56.4432 10.9076 57.2817 11.8008C58.1385 12.694 58.7765 13.7148 59.1958 14.8633C59.6151 15.9935 59.8247 17.1602 59.8247 18.3633C59.8247 20.0221 59.6424 21.444 59.2778 22.6289C58.9315 23.7956 58.4849 24.7799 57.938 25.582C57.3911 26.3659 56.7713 26.9857 56.0786 27.4414C55.4041 27.8971 54.7479 28.2435 54.1099 28.4805C53.4718 28.6992 52.8885 28.8451 52.3599 28.918C51.8312 28.9727 51.4393 29 51.1841 29H47.9575V26.5938H50.0903C52.3143 26.5938 53.9185 25.8828 54.9028 24.4609C55.8872 23.0391 56.3794 20.9792 56.3794 18.2812C56.3794 17.4427 56.2791 16.6133 56.0786 15.793C55.8781 14.9727 55.4862 14.2344 54.9028 13.5781C54.3377 12.9036 53.563 12.3659 52.5786 11.9648C51.5942 11.5456 50.3182 11.3359 48.7505 11.3359H47.9575V8.84766H49.6255ZM64.4458 8.84766H67.7271V29H64.4458V8.84766ZM78.1177 29H74.645L70.8442 21.6992C70.7896 21.6992 70.7257 21.7083 70.6528 21.7266C70.5981 21.7266 70.507 21.7266 70.3794 21.7266C70.2518 21.7266 70.0604 21.7266 69.8052 21.7266C69.5682 21.7266 69.2492 21.7266 68.8481 21.7266V19.3203H70.7075C71.1086 19.3203 71.5096 19.2565 71.9106 19.1289C72.3117 18.9831 72.6763 18.7552 73.0044 18.4453C73.3325 18.1354 73.5968 17.707 73.7974 17.1602C73.9979 16.5951 74.0981 15.9023 74.0981 15.082C74.0981 14.7539 74.0526 14.3802 73.9614 13.9609C73.8703 13.5234 73.6789 13.1133 73.3872 12.7305C73.1138 12.3294 72.7218 12.0013 72.2114 11.7461C71.701 11.4727 71.0265 11.3359 70.188 11.3359H68.8481V8.84766H70.2427C71.0994 8.84766 71.9471 8.98438 72.7856 9.25781C73.6242 9.53125 74.3716 9.94141 75.0278 10.4883C75.7023 11.0352 76.2401 11.7005 76.6411 12.4844C77.0604 13.25 77.27 14.1159 77.27 15.082C77.27 16.5404 76.9328 17.7799 76.2583 18.8008C75.5838 19.8216 74.6724 20.5781 73.5239 21.0703L78.1177 29ZM95.563 8.84766V11.5L85.9653 25.9102L85.4185 26.3477H95.563V29H82.1646V26.3477L91.7622 11.9375L92.3364 11.5H82.1646V8.84766H95.563ZM84.6255 3.02344H87.6333L88.2622 4.17188V6.90625H87.5786L84.6255 3.02344ZM90.0122 3.02344H93.0474L90.0669 6.90625H89.3833V4.14453L90.0122 3.02344ZM114.403 8.84766V11.0898H108.387V29H105.079V11.0898H99.063V8.84766H114.403ZM118.395 8.84766H121.731V29H118.395V8.84766ZM130.153 19.9219H122.852V17.6797H130.153V19.9219ZM122.852 26.5117H131V29H122.852V26.5117ZM131 8.84766V11.3359H122.852V8.84766H131ZM142.95 8.84766H146.231V29H142.95V8.84766ZM148.747 8.84766C149.603 8.84766 150.451 8.98438 151.29 9.25781C152.128 9.53125 152.875 9.94141 153.532 10.4883C154.206 11.0352 154.744 11.7005 155.145 12.4844C155.564 13.25 155.774 14.1159 155.774 15.082C155.774 16.1029 155.601 17.0326 155.254 17.8711C154.908 18.6914 154.425 19.3841 153.805 19.9492C153.185 20.5143 152.438 20.9518 151.563 21.2617C150.688 21.5716 149.722 21.7266 148.665 21.7266H147.352V19.3203H149.239C149.64 19.3203 150.032 19.2565 150.415 19.1289C150.816 18.9831 151.18 18.7552 151.508 18.4453C151.836 18.1354 152.101 17.707 152.301 17.1602C152.502 16.5951 152.602 15.9023 152.602 15.082C152.602 14.7539 152.556 14.3802 152.465 13.9609C152.374 13.5234 152.183 13.1133 151.891 12.7305C151.618 12.3294 151.226 12.0013 150.715 11.7461C150.205 11.4727 149.53 11.3359 148.692 11.3359H147.352V8.84766H148.747ZM176.036 29H172.645L167.422 13.9062L162.145 29H158.727L165.782 8.875H169.036L176.036 29ZM169.227 22.6016L170.02 24.8164H164.797L165.563 22.6016H169.227ZM183.637 8.84766V26.5117H192.907V29H180.301V8.84766H183.637ZM207.618 12.7305C207.198 12.2565 206.752 11.901 206.278 11.6641C205.804 11.4271 205.293 11.2904 204.747 11.2539V8.54688C206.788 8.63802 208.502 9.35807 209.887 10.707L207.618 12.7305ZM204.747 26.4297C205.293 26.375 205.804 26.2292 206.278 25.9922C206.77 25.7552 207.217 25.4089 207.618 24.9531L209.887 26.9492C209.194 27.6237 208.42 28.1432 207.563 28.5078C206.706 28.8724 205.767 29.082 204.747 29.1367V26.4297ZM195.887 18.8281C195.887 17.2057 196.079 15.7747 196.461 14.5352C196.862 13.2956 197.409 12.2474 198.102 11.3906C198.795 10.5339 199.606 9.86849 200.536 9.39453C201.484 8.92057 202.514 8.63802 203.625 8.54688V11.2812C203.024 11.3724 202.459 11.582 201.93 11.9102C201.402 12.2201 200.937 12.6758 200.536 13.2773C200.135 13.8789 199.816 14.6445 199.579 15.5742C199.36 16.4857 199.241 17.5703 199.223 18.8281C199.241 20.1042 199.36 21.1979 199.579 22.1094C199.816 23.0208 200.135 23.7865 200.536 24.4062C200.937 25.026 201.402 25.5 201.93 25.8281C202.477 26.1562 203.042 26.3568 203.625 26.4297V29.1094C202.514 29.0365 201.484 28.763 200.536 28.2891C199.606 27.8151 198.795 27.1497 198.102 26.293C197.409 25.4362 196.862 24.388 196.461 23.1484C196.079 21.8906 195.887 20.4505 195.887 18.8281ZM214.672 8.84766H218.008V29H214.672V8.84766ZM226.43 19.9219H219.129V17.6797H226.43V19.9219ZM219.129 26.5117H227.278V29H219.129V26.5117ZM227.278 8.84766V11.3359H219.129V8.84766H227.278Z" fill="#353434"/>
<path d="M45.9407 49.6845L49.3457 49.4145L49.7357 47.7345L50.2307 47.7795L50.4257 49.3695L50.6207 50.4195L49.3907 50.2845H45.6257L44.1257 50.3745V49.8645L44.8007 49.2495L48.5357 43.5795L48.4607 43.3995L45.7307 43.5645L45.4007 45.0195L44.8757 44.9295L44.7257 43.5795L44.6057 42.6045L45.8207 42.7845H50.3207L50.5307 43.3395L50.0507 43.7295L49.0607 45.3045L45.8807 49.5945L45.9407 49.6845ZM53.107 46.2495L53.092 46.3845L53.497 48.4995L54.682 49.6695L56.062 49.8195L57.472 49.0695L57.742 49.4595L56.557 50.4045L55.147 50.5845L53.677 50.2395L52.402 49.1745L51.637 46.9245L51.892 44.9145L52.672 43.5045L54.247 42.6345L55.567 42.4695L56.617 42.7995L57.427 43.5345L57.892 44.8695L57.907 46.1145L57.697 46.2795L55.702 46.4145L53.107 46.2495ZM53.857 43.8195L53.272 44.9595L53.182 45.6345L55.462 45.6645L56.497 45.4395L56.407 44.0445L55.957 43.2795L54.997 43.1445L53.857 43.8195ZM68.4733 50.2845H62.5933V49.4145L66.9133 43.2645H62.8483V42.2445H68.3683V43.2345L64.1083 49.2645H68.4733V50.2845ZM64.8433 41.1945C64.7133 40.9645 64.5383 40.7195 64.3183 40.4595C64.0983 40.1895 63.8683 39.9245 63.6283 39.6645C63.3883 39.4045 63.1783 39.1795 62.9983 38.9895V38.7945H63.8983C64.1583 38.9645 64.4283 39.1695 64.7083 39.4095C64.9883 39.6495 65.2533 39.9045 65.5033 40.1745C65.7733 39.9045 66.0483 39.6495 66.3283 39.4095C66.6083 39.1695 66.8783 38.9645 67.1383 38.7945H68.0683V38.9895C67.8783 39.1795 67.6583 39.4045 67.4083 39.6645C67.1683 39.9245 66.9333 40.1895 66.7033 40.4595C66.4833 40.7195 66.3133 40.9645 66.1933 41.1945H64.8433ZM70.3442 39.6645L71.0342 39.3345L71.7542 39.5745L72.0842 40.3845L71.6642 41.0445L70.9592 41.3295L70.2992 40.9245L69.9842 40.2495L70.3442 39.6645ZM72.0392 44.8395L71.9492 46.3395L71.9942 47.7945L72.0542 49.5345L73.1492 49.8345L73.0742 50.3595L71.3042 50.2845L69.4742 50.3595L69.5042 49.8345L70.4942 49.5345L70.5692 47.9595L70.5392 45.0795L70.4642 43.5195L69.3992 43.5645L69.3242 43.0395L71.3942 42.6345L72.1442 42.7995L72.0392 44.8395ZM74.8776 44.8245L74.2026 43.5045L73.1976 43.2345L73.2726 42.7095L75.1026 42.7845L77.0376 42.7095L77.0076 43.2345L76.0626 43.5345L76.3026 44.4045L77.2776 46.9095L77.8776 49.0995H77.9226L78.3276 47.5695L79.5126 44.4495L79.7526 43.4895L78.6876 43.2345L78.7626 42.7095L80.1276 42.7845L81.7176 42.7095L81.6876 43.2345L80.7576 43.5345L80.1126 44.9145L78.2676 49.8495L77.8176 50.6295L77.3226 50.7345L74.8776 44.8245ZM82.0611 47.4345V45.4695L82.9461 43.6845L84.6411 42.5595L86.6961 42.4845L88.5711 43.6095L89.5461 45.4095L89.3661 48.1545L88.2561 49.9245L85.9311 50.5845L83.9811 50.2095L82.5561 48.9195L82.0611 47.4345ZM83.7111 44.9595L83.6361 46.6395L83.8161 48.3795L84.4611 49.5045L86.0511 49.8945L87.5211 49.2495L87.9561 46.9095L87.8061 44.9595L87.2511 43.7145L86.1561 43.1595L84.6561 43.3245L83.7111 44.9595ZM94.0337 50.4345L93.0137 50.5845L91.9487 50.2245L91.4687 49.0245L91.5437 46.2345L91.4687 43.7145L90.4337 43.5645L90.3437 43.0395L91.5287 42.7245L92.0687 41.2095H92.8337L92.7887 42.8895L94.6037 42.9495L94.5137 43.6095L92.9387 43.7145L92.8787 44.4045L92.9387 48.9495L93.2387 49.8495L94.6487 49.4745L94.8737 49.9245L94.0337 50.4345ZM97.2323 49.4445L98.3573 49.7295L99.8723 48.8595L99.8123 46.8345H98.5073L97.3523 47.2995L96.8273 48.2295L97.2323 49.4445ZM101.102 47.5545L101.207 49.6695L102.242 49.8195L102.137 50.3145L100.052 50.4945L99.8573 49.6095H99.7823L98.2973 50.4945H96.7373L95.6873 49.7295L95.3723 48.2595L96.0323 47.0895L97.8323 46.3095L99.8123 46.2345L99.7523 44.3595L99.4673 43.4295L98.2523 43.0845L96.7973 43.4295L96.7523 45.0195L96.1673 45.1395L95.7773 43.0845L97.5023 42.5745L99.4373 42.4845L100.607 43.0545L101.087 44.3445L101.102 47.5545ZM107.573 49.6995L108.818 49.8945L110.213 49.6995L110.543 48.6795L110.138 47.8995L107.348 46.2045L106.748 45.2595L106.718 43.6695L107.783 42.7695L109.358 42.4845L111.563 42.9345L111.248 45.1395L110.618 44.9295L110.333 43.3695L109.298 43.1745L108.173 43.4295L107.888 44.2545L108.248 45.1395L111.128 46.7895L111.833 47.6745L111.893 49.0845L110.873 50.2845L109.073 50.5845L107.828 50.5245L106.433 49.9845L106.808 47.8245L107.453 48.0345L107.573 49.6995ZM118.267 49.4445L119.392 49.7295L120.907 48.8595L120.847 46.8345H119.542L118.387 47.2995L117.862 48.2295L118.267 49.4445ZM122.137 47.5545L122.242 49.6695L123.277 49.8195L123.172 50.3145L121.087 50.4945L120.892 49.6095H120.817L119.332 50.4945H117.772L116.722 49.7295L116.407 48.2595L117.067 47.0895L118.867 46.3095L120.847 46.2345L120.787 44.3595L120.502 43.4295L119.287 43.0845L117.832 43.4295L117.787 45.0195L117.202 45.1395L116.812 43.0845L118.537 42.5745L120.472 42.4845L121.642 43.0545L122.122 44.3445L122.137 47.5545ZM126.189 45.1095V48.3795L126.594 49.3695L127.854 49.5345L129.489 48.5595V46.9695L129.474 45.0945L129.399 43.5345L128.334 43.5795L128.259 43.0545L130.329 42.6495L131.079 42.8145L130.974 44.8545L130.959 46.0545L130.989 46.9695V49.6695L132.039 49.9695L131.964 50.4945H129.909L129.564 49.2345L127.869 50.4795L126.339 50.5845L124.959 49.6395L124.734 48.4395L124.749 45.2295L124.599 43.5195L123.534 43.5645L123.459 43.0395L125.529 42.6345L126.279 42.7995L126.189 45.1095ZM136.207 50.4345L135.187 50.5845L134.122 50.2245L133.642 49.0245L133.717 46.2345L133.642 43.7145L132.607 43.5645L132.517 43.0395L133.702 42.7245L134.242 41.2095H135.007L134.962 42.8895L136.777 42.9495L136.687 43.6095L135.112 43.7145L135.052 44.4045L135.112 48.9495L135.412 49.8495L136.822 49.4745L137.047 49.9245L136.207 50.4345ZM138.43 39.6645L139.12 39.3345L139.84 39.5745L140.17 40.3845L139.75 41.0445L139.045 41.3295L138.385 40.9245L138.07 40.2495L138.43 39.6645ZM140.125 44.8395L140.035 46.3395L140.08 47.7945L140.14 49.5345L141.235 49.8345L141.16 50.3595L139.39 50.2845L137.56 50.3595L137.59 49.8345L138.58 49.5345L138.655 47.9595L138.625 45.0795L138.55 43.5195L137.485 43.5645L137.41 43.0395L139.48 42.6345L140.23 42.7995L140.125 44.8395ZM143.096 49.6995L144.341 49.8945L145.736 49.6995L146.066 48.6795L145.661 47.8995L142.871 46.2045L142.271 45.2595L142.241 43.6695L143.306 42.7695L144.881 42.4845L147.086 42.9345L146.771 45.1395L146.141 44.9295L145.856 43.3695L144.821 43.1745L143.696 43.4295L143.411 44.2545L143.771 45.1395L146.651 46.7895L147.356 47.6745L147.416 49.0845L146.396 50.2845L144.596 50.5845L143.351 50.5245L141.956 49.9845L142.331 47.8245L142.976 48.0345L143.096 49.6995ZM155.69 49.5495L156.755 49.8345L156.68 50.3595L154.91 50.2845L153.08 50.3595L153.11 49.8345L154.1 49.5345L154.205 47.9595L154.145 44.6895L153.74 43.6995L152.465 43.4745L150.98 44.2695L150.95 44.8395L150.86 46.3395L150.89 47.7945L150.965 49.5345L152.06 49.8345L151.985 50.3595L150.215 50.2845L148.385 50.3595L148.415 49.8345L149.405 49.5345L149.51 47.9595L149.45 45.0795L149.375 43.5195L148.31 43.5645L148.235 43.0395L150.305 42.6345L151.055 42.7995L151.01 43.5045L152.465 42.5895L153.995 42.4845L155.375 43.4295L155.45 43.8345L156.95 42.5895L158.48 42.4845L159.86 43.4295L160.085 44.6295L160.055 47.7945L160.175 49.5495L161.24 49.8345L161.165 50.3595L159.395 50.2845L157.565 50.3595L157.595 49.8345L158.585 49.5345L158.69 47.9595L158.63 44.6895L158.225 43.6995L156.95 43.4745L155.57 44.4795L155.6 44.6295L155.57 47.7945L155.69 49.5495ZM163.41 46.2495L163.395 46.3845L163.8 48.4995L164.985 49.6695L166.365 49.8195L167.775 49.0695L168.045 49.4595L166.86 50.4045L165.45 50.5845L163.98 50.2395L162.705 49.1745L161.94 46.9245L162.195 44.9145L162.975 43.5045L164.55 42.6345L165.87 42.4695L166.92 42.7995L167.73 43.5345L168.195 44.8695L168.21 46.1145L168 46.2795L166.005 46.4145L163.41 46.2495ZM164.16 43.8195L163.575 44.9595L163.485 45.6345L165.765 45.6645L166.8 45.4395L166.71 44.0445L166.26 43.2795L165.3 43.1445L164.16 43.8195ZM176.476 49.5495L177.541 49.8345L177.466 50.3595L175.696 50.2845L173.866 50.3595L173.896 49.8345L174.886 49.5345L174.991 47.9595L174.931 44.6895L174.526 43.6995L173.251 43.4745L171.766 44.2695L171.736 44.8395L171.646 46.3395L171.676 47.7945L171.751 49.5345L172.846 49.8345L172.771 50.3595L171.001 50.2845L169.171 50.3595L169.201 49.8345L170.191 49.5345L170.296 47.9595L170.236 45.0795L170.161 43.5195L169.096 43.5645L169.021 43.0395L171.091 42.6345L171.841 42.7995L171.796 43.5045L173.251 42.5895L174.781 42.4845L176.161 43.4295L176.236 43.8345L177.736 42.5895L179.266 42.4845L180.646 43.4295L180.871 44.6295L180.841 47.7945L180.961 49.5495L182.026 49.8345L181.951 50.3595L180.181 50.2845L178.351 50.3595L178.381 49.8345L179.371 49.5345L179.476 47.9595L179.416 44.6895L179.011 43.6995L177.736 43.4745L176.356 44.4795L176.386 44.6295L176.356 47.7945L176.476 49.5495Z" fill="#353434"/>
<path d="M35 13.4141C35 8.21459 30.6784 4 25.3458 4C22.11 4 19.2514 5.55915 17.5 7.93965C15.7486 5.55915 12.8901 4 9.6542 4C4.32161 4 -8.25352e-08 8.21459 -1.84358e-07 13.4141C-1.98739e-07 14.1484 0.0961141 14.8619 0.259866 15.551C1.60191 23.6704 10.861 32.2353 17.5 34.5845C24.1355 32.2353 33.3981 23.6704 34.7366 15.551C34.9039 14.8619 35 14.1484 35 13.4141Z" fill="#ED9D8C"/>
<path d="M13.7484 23.1225C13.8837 23.6202 13.5846 24.1318 13.0791 24.264L12.8869 24.3162C12.3814 24.4485 11.8617 24.1527 11.7264 23.655L10.0462 17.4984C9.91448 17.0008 10.2135 16.4892 10.719 16.3534L10.9077 16.3047C11.4167 16.1725 11.9365 16.4683 12.0717 16.966L13.7484 23.1225ZM16.258 22.1202C16.3435 22.6492 15.9768 23.1434 15.4393 23.2234L15.3111 23.2443C14.7736 23.3244 14.2717 22.9659 14.1898 22.4369L12.9652 14.676C12.8798 14.1504 13.25 13.6562 13.784 13.5762L13.9121 13.5553C14.4497 13.4718 14.9516 13.8337 15.0335 14.3592L16.258 22.1202ZM18.7036 22.061C18.6716 22.5831 18.2159 22.9798 17.6891 22.952L17.5609 22.9415C17.0305 22.9137 16.6247 22.4648 16.6567 21.9462L17.1053 14.2722C17.1338 13.7537 17.5894 13.3535 18.1198 13.3848L18.248 13.3917C18.7784 13.4196 19.1806 13.8685 19.1522 14.3871L18.7036 22.061ZM21.1065 23.0703C20.9926 23.5541 20.5013 23.8569 20.0065 23.7455L19.7502 23.6863C19.259 23.575 18.9528 23.0912 19.0667 22.6074L20.779 15.3302C20.8929 14.8465 21.3842 14.5437 21.879 14.6585L22.1353 14.7142C22.6265 14.8291 22.9327 15.3128 22.8188 15.7966L21.1065 23.0703ZM23.0644 27.4067C22.7903 27.8696 22.1851 28.0297 21.7117 27.7617L21.612 27.706C21.1385 27.4346 20.9783 26.8394 21.2524 26.3766L24.1893 21.372C24.4598 20.9056 25.0686 20.7455 25.5384 21.0135L25.6417 21.0727C26.1151 21.3406 26.2753 21.9358 26.0012 22.4021L23.0644 27.4067Z" fill="white"/>
<path d="M11.1531 21.5599C11.4058 22.7676 11.0605 24.2293 11.0605 25.6771C11.0605 27.1214 12.1712 31.8545 17.3436 31.8545C22.5124 31.8545 22.8399 27.6156 23.6267 26.3627C24.4098 25.1098 23.4344 23.0077 22.6762 23.9404C21.651 25.2037 20.8607 24.9984 21.2914 22.5553C21.6118 20.7351 19.7394 19.8546 19.4047 21.4973C19.1449 22.7676 18.7248 22.5031 18.7818 21.1005C18.8565 19.4091 16.8559 19.2247 16.7527 21.1458C16.6815 22.5413 16.2045 21.9462 16.0621 21.0065C15.941 20.1991 13.7624 19.604 13.9618 20.843C14.2715 22.7919 13.8657 23.3314 13.1964 21.2154C12.7764 19.8789 10.9039 20.3523 11.1531 21.5599Z" fill="white"/>
<path d="M22 24.6048C21.8193 24.5388 21.692 24.3409 21.6386 24C20.497 24.1393 18.9858 24.4179 17.7949 25.4625C16.2509 26.8151 15.9881 28.2813 16.0004 29.26C16.0086 30.0518 16.4891 30.4256 16.6287 29.2563C16.8094 27.7755 17.9838 24.8467 22 24.6048Z" fill="white"/>
<path d="M15.2823 27.1179C15.3535 27.3685 15.2004 27.6226 14.9476 27.6922L14.8551 27.7165C14.5988 27.7826 14.3389 27.6365 14.2713 27.3859L13.4347 24.3094C13.3671 24.0623 13.5166 23.8047 13.7693 23.7386L13.8655 23.7142C14.1182 23.6481 14.3781 23.7943 14.4457 24.0449L15.2823 27.1179ZM16.5389 26.6202C16.5816 26.8847 16.3965 27.1318 16.1295 27.1701L16.0654 27.1806C15.7984 27.2223 15.5457 27.0414 15.503 26.7769L14.8907 22.8998C14.8515 22.6388 15.0331 22.3917 15.3001 22.35L15.3677 22.3395C15.6347 22.2978 15.8839 22.4787 15.9266 22.7432L16.5389 26.6202ZM17.7599 26.5889C17.7456 26.8499 17.5178 27.0483 17.2544 27.0344L17.1903 27.0309C16.9233 27.017 16.724 26.7943 16.7382 26.5332L16.9625 22.698C16.9767 22.437 17.2046 22.2386 17.468 22.2525L17.5321 22.2595C17.799 22.2734 17.9984 22.4961 17.9841 22.7572L17.7599 26.5889ZM18.9631 27.0936C18.9061 27.3372 18.6605 27.4868 18.4113 27.4311L18.2867 27.4033C18.0375 27.3476 17.8845 27.104 17.9414 26.8639L18.7993 23.227C18.8563 22.9869 19.1019 22.8337 19.3476 22.8894L19.4757 22.9207C19.7249 22.9764 19.878 23.2166 19.821 23.4602L18.9631 27.0936ZM19.942 29.2618C19.8068 29.4915 19.5042 29.5715 19.2657 29.4393L19.2158 29.4114C18.9809 29.2757 18.899 28.9799 19.0343 28.7467L20.5045 26.2444C20.6398 26.0147 20.9423 25.9346 21.1809 26.0669L21.2307 26.0947C21.4656 26.2305 21.5475 26.5263 21.4122 26.7595L19.942 29.2618Z" fill="#59B5C2"/>
<path d="M13.9862 26.3384C14.1108 26.944 13.9399 27.6748 13.9399 28.3952C13.9399 29.1191 14.4953 31.4857 17.0797 31.4857C19.6677 31.4857 19.8314 29.3662 20.223 28.7398C20.6146 28.1133 20.1269 27.0623 19.7495 27.5286C19.2369 28.162 18.8418 28.0576 19.0554 26.8361C19.2156 25.9277 18.2793 25.4892 18.112 26.3105C17.9839 26.944 17.7703 26.8117 17.8023 26.1087C17.8379 25.2665 16.8376 25.1725 16.7878 26.1331C16.7486 26.8291 16.5137 26.5333 16.4389 26.0634C16.3784 25.6597 15.2927 25.3639 15.3888 25.9799C15.5454 26.9544 15.3425 27.2259 15.0079 26.1679C14.7979 25.4996 13.8616 25.7363 13.9862 26.3384Z" fill="#59B5C2"/>
<path d="M19 28.2005C18.9398 28.1785 18.8988 28.1125 18.8796 28C18.4993 28.0465 17.9959 28.1394 17.5992 28.4865C17.0849 28.9388 16.9973 29.4278 17.0001 29.753C17.0055 30.0171 17.1642 30.1418 17.2107 29.753C17.2709 29.2591 17.6621 28.2836 19 28.2005Z" fill="#59B5C2"/>
<path d="M35 13.4141C35 8.21459 30.6784 4 25.3458 4C22.11 4 19.2514 5.55915 17.5 7.93965C15.7486 5.55915 12.8901 4 9.6542 4C4.32161 4 -8.25352e-08 8.21459 -1.84358e-07 13.4141C-1.98739e-07 14.1484 0.0961141 14.8619 0.259866 15.551C1.60191 23.6704 10.861 32.2353 17.5 34.5845C24.1355 32.2353 33.3981 23.6704 34.7366 15.551C34.9039 14.8619 35 14.1484 35 13.4141Z" fill="#ED9D8C"/>
<path d="M13.7484 23.1225C13.8837 23.6202 13.5846 24.1318 13.0791 24.264L12.8869 24.3162C12.3814 24.4485 11.8617 24.1527 11.7264 23.655L10.0462 17.4984C9.91448 17.0008 10.2135 16.4892 10.719 16.3534L10.9077 16.3047C11.4167 16.1725 11.9365 16.4683 12.0717 16.966L13.7484 23.1225ZM16.258 22.1202C16.3435 22.6492 15.9768 23.1434 15.4393 23.2234L15.3111 23.2443C14.7736 23.3244 14.2717 22.9659 14.1898 22.4369L12.9652 14.676C12.8798 14.1504 13.25 13.6562 13.784 13.5762L13.9121 13.5553C14.4497 13.4718 14.9516 13.8337 15.0335 14.3592L16.258 22.1202ZM18.7036 22.061C18.6716 22.5831 18.2159 22.9798 17.6891 22.952L17.5609 22.9415C17.0305 22.9137 16.6247 22.4648 16.6567 21.9462L17.1053 14.2722C17.1338 13.7537 17.5894 13.3535 18.1198 13.3848L18.248 13.3917C18.7784 13.4196 19.1806 13.8685 19.1522 14.3871L18.7036 22.061ZM21.1065 23.0703C20.9926 23.5541 20.5013 23.8569 20.0065 23.7455L19.7502 23.6863C19.259 23.575 18.9528 23.0912 19.0667 22.6074L20.779 15.3302C20.8929 14.8465 21.3842 14.5437 21.879 14.6585L22.1353 14.7142C22.6265 14.8291 22.9327 15.3128 22.8188 15.7966L21.1065 23.0703ZM23.0644 27.4067C22.7903 27.8696 22.1851 28.0297 21.7117 27.7617L21.612 27.706C21.1385 27.4346 20.9783 26.8394 21.2524 26.3766L24.1893 21.372C24.4598 20.9056 25.0686 20.7455 25.5384 21.0135L25.6417 21.0727C26.1151 21.3406 26.2753 21.9358 26.0012 22.4021L23.0644 27.4067Z" fill="white"/>
<path d="M11.1531 21.5599C11.4058 22.7676 11.0605 24.2293 11.0605 25.6771C11.0605 27.1214 12.1712 31.8545 17.3436 31.8545C22.5124 31.8545 22.8399 27.6156 23.6267 26.3627C24.4098 25.1098 23.4344 23.0077 22.6762 23.9404C21.651 25.2037 20.8607 24.9984 21.2914 22.5553C21.6118 20.7351 19.7394 19.8546 19.4047 21.4973C19.1449 22.7676 18.7248 22.5031 18.7818 21.1005C18.8565 19.4091 16.8559 19.2247 16.7527 21.1458C16.6815 22.5413 16.2045 21.9462 16.0621 21.0065C15.941 20.1991 13.7624 19.604 13.9618 20.843C14.2715 22.7919 13.8657 23.3314 13.1964 21.2154C12.7764 19.8789 10.9039 20.3523 11.1531 21.5599Z" fill="white"/>
<path d="M22 24.6048C21.8193 24.5388 21.692 24.3409 21.6386 24C20.497 24.1393 18.9858 24.4179 17.7949 25.4625C16.2509 26.8151 15.9881 28.2813 16.0004 29.26C16.0086 30.0518 16.4891 30.4256 16.6287 29.2563C16.8094 27.7755 17.9838 24.8467 22 24.6048Z" fill="white"/>
<path d="M15.2823 27.1179C15.3535 27.3685 15.2004 27.6226 14.9476 27.6922L14.8551 27.7165C14.5988 27.7826 14.3389 27.6365 14.2713 27.3859L13.4347 24.3094C13.3671 24.0623 13.5166 23.8047 13.7693 23.7386L13.8655 23.7142C14.1182 23.6481 14.3781 23.7943 14.4457 24.0449L15.2823 27.1179ZM16.5389 26.6202C16.5816 26.8847 16.3965 27.1318 16.1295 27.1701L16.0654 27.1806C15.7984 27.2223 15.5457 27.0414 15.503 26.7769L14.8907 22.8998C14.8515 22.6388 15.0331 22.3917 15.3001 22.35L15.3677 22.3395C15.6347 22.2978 15.8839 22.4787 15.9266 22.7432L16.5389 26.6202ZM17.7599 26.5889C17.7456 26.8499 17.5178 27.0483 17.2544 27.0344L17.1903 27.0309C16.9233 27.017 16.724 26.7943 16.7382 26.5332L16.9625 22.698C16.9767 22.437 17.2046 22.2386 17.468 22.2525L17.5321 22.2595C17.799 22.2734 17.9984 22.4961 17.9841 22.7572L17.7599 26.5889ZM18.9631 27.0936C18.9061 27.3372 18.6605 27.4868 18.4113 27.4311L18.2867 27.4033C18.0375 27.3476 17.8845 27.104 17.9414 26.8639L18.7993 23.227C18.8563 22.9869 19.1019 22.8337 19.3476 22.8894L19.4757 22.9207C19.7249 22.9764 19.878 23.2166 19.821 23.4602L18.9631 27.0936ZM19.942 29.2618C19.8068 29.4915 19.5042 29.5715 19.2657 29.4393L19.2158 29.4114C18.9809 29.2757 18.899 28.9799 19.0343 28.7467L20.5045 26.2444C20.6398 26.0147 20.9423 25.9346 21.1809 26.0669L21.2307 26.0947C21.4656 26.2305 21.5475 26.5263 21.4122 26.7595L19.942 29.2618Z" fill="#59B5C2"/>
<path d="M13.9862 26.3384C14.1108 26.944 13.9399 27.6748 13.9399 28.3952C13.9399 29.1191 14.4953 31.4857 17.0797 31.4857C19.6677 31.4857 19.8314 29.3662 20.223 28.7398C20.6146 28.1133 20.1269 27.0623 19.7495 27.5286C19.2369 28.162 18.8418 28.0576 19.0554 26.8361C19.2156 25.9277 18.2793 25.4892 18.112 26.3105C17.9839 26.944 17.7703 26.8117 17.8023 26.1087C17.8379 25.2665 16.8376 25.1725 16.7878 26.1331C16.7486 26.8291 16.5137 26.5333 16.4389 26.0634C16.3784 25.6597 15.2927 25.3639 15.3888 25.9799C15.5454 26.9544 15.3425 27.2259 15.0079 26.1679C14.7979 25.4996 13.8616 25.7363 13.9862 26.3384Z" fill="#59B5C2"/>
<path d="M19 28.2005C18.9398 28.1785 18.8988 28.1125 18.8796 28C18.4993 28.0465 17.9959 28.1394 17.5992 28.4865C17.0849 28.9388 16.9973 29.4278 17.0001 29.753C17.0055 30.0171 17.1642 30.1418 17.2107 29.753C17.2709 29.2591 17.6621 28.2836 19 28.2005Z" fill="#59B5C2"/>
</svg>
